<?xml version="1.0" encoding="iso-8859-1"?>
<!-- Generator: Adobe Illustrator 19.0.0, SVG Export Plug-In . SVG Version: 6.00 Build 0)  -->
<svg version="1.1" id="Capa_1" xmlns="http://www.w3.org/2000/svg" xmlns:xlink="http://www.w3.org/1999/xlink" x="0px" y="0px"
	 viewBox="0 0 512.001 512.001" style="enable-background:new 0 0 512.001 512.001;" xml:space="preserve">
<g>
	
		<rect x="218.693" y="266.945" transform="matrix(-0.7071 -0.7071 0.7071 -0.7071 193.3604 733.9821)" style="fill:#CAE8F9;" width="59.999" height="119.999"/>
	<path style="fill:#CAE8F9;" d="M503.251,157.243c-11.667,11.667-30.759,11.667-42.426,0l-74.246-31.82l-31.82-74.246
		c-11.667-11.667-11.667-30.759,0-42.426s30.759-11.667,42.426,0l106.066,106.065C514.917,126.483,514.917,145.576,503.251,157.243z
		"/>
</g>
<path style="fill:#A4D9F5;" d="M460.824,157.243l-74.246-31.82l63.64-63.64l53.033,53.033c11.667,11.667,11.667,30.759,0,42.426
	C491.584,168.91,472.491,168.91,460.824,157.243z"/>
<path style="fill:#B7E0F6;" d="M482.038,220.882c-11.667,11.667-30.759,11.667-42.426,0l-84.216-64.277l-4.668-3.394L291.119,72.39
	c-11.667-11.667-11.667-30.759,0-42.426s30.759-11.667,42.426,0l148.492,148.492C493.705,190.123,493.705,209.215,482.038,220.882z"
	/>
<path style="fill:#81C8EE;" d="M439.611,220.882l-84.216-64.277l52.396-52.396l74.246,74.246c11.667,11.667,11.667,30.759,0,42.426
	C470.371,232.549,451.278,232.549,439.611,220.882z"/>
<path style="fill:#CAE8F9;" d="M439.611,263.309c-11.667,11.667-30.759,11.667-42.426,0l-84.216-64.277l-4.668-3.394l-59.609-80.822
	c-11.667-11.667-11.667-30.759,0-42.426c11.667-11.667,30.759-11.667,42.426,0l148.493,148.492
	C451.278,232.549,451.278,251.642,439.611,263.309z"/>
<path style="fill:#A4D9F5;" d="M397.185,263.309l-84.216-64.277l52.396-52.396l74.246,74.246c11.667,11.667,11.667,30.759,0,42.426
	C427.944,274.976,408.852,274.976,397.185,263.309z"/>
<path style="fill:#B7E0F6;" d="M397.185,305.735c-11.667,11.667-30.759,11.667-42.426,0l-84.216-64.277l-4.668-3.394l-59.609-80.822
	c-11.667-11.667-11.667-30.759,0-42.426s30.759-11.667,42.426,0l148.492,148.492C408.852,274.976,408.852,294.068,397.185,305.735z"
	/>
<path style="fill:#81C8EE;" d="M397.185,305.735c-11.667,11.667-30.759,11.667-42.426,0l-84.216-64.277l52.396-52.396l74.246,74.246
	C408.852,274.976,408.852,294.068,397.185,305.735z"/>
<path style="fill:#CAE8F9;" d="M163.839,157.243L163.839,157.243c11.716-11.716,30.711-11.716,42.426,0l148.492,148.492
	c11.667,11.667,11.667,30.759,0,42.426s-30.759,11.667-42.426,0l-84.853-84.853l-63.64,63.64l-42.426-42.426l63.64-63.64
	l-21.213-21.213C152.124,187.953,152.124,168.958,163.839,157.243z"/>
<path style="fill:#57555C;" d="M128.023,468.831L43.17,383.978c-5.94-5.94-15.273-5.94-21.213,0
	c-29.274,29.274-29.274,76.792,0,106.066s76.792,29.274,106.066,0C133.963,484.104,133.963,474.771,128.023,468.831z"/>
<path style="fill:#3C3A41;" d="M128.023,490.044c-29.274,29.274-76.792,29.274-106.066,0l63.64-63.64l42.426,42.426
	C133.963,474.771,133.963,484.104,128.023,490.044z"/>
<path style="fill:#A4D9F5;" d="M354.758,348.161c-11.667,11.667-30.759,11.667-42.426,0l-74.246-74.246l42.426-42.426l74.246,74.246
	C366.425,317.402,366.425,336.495,354.758,348.161z"/>
<path style="fill:#17CEB4;" d="M280.512,358.768L153.232,231.489c-17.607-17.607-46.032-17.607-63.64,0l-67.637,67.637
	c-29.274,29.274-29.274,76.792,0,106.066l84.853,84.853c29.274,29.274,76.792,29.274,106.066,0l67.637-67.637
	C298.119,404.8,298.119,376.375,280.512,358.768z"/>
<path style="fill:#11AD94;" d="M280.512,422.408l-67.637,67.637c-29.274,29.274-76.792,29.274-106.066,0l-42.426-42.426
	L216.871,295.13l63.64,63.64C298.119,376.375,298.119,404.8,280.512,422.408z"/>
<g>
</g>
<g>
</g>
<g>
</g>
<g>
</g>
<g>
</g>
<g>
</g>
<g>
</g>
<g>
</g>
<g>
</g>
<g>
</g>
<g>
</g>
<g>
</g>
<g>
</g>
<g>
</g>
<g>
</g>
</svg>
