<svg id="Capa_1" enable-background="new 0 0 512 512" height="512" viewBox="0 0 512 512" width="512" xmlns="http://www.w3.org/2000/svg"><path d="m256 0c-141.159 0-256 114.841-256 256s114.841 256 256 256 256-114.841 256-256-114.841-256-256-256z" fill="#4ab8f7"/><path d="m256 0v512c141.159 0 256-114.841 256-256s-114.841-256-256-256z" fill="#368dcf"/><path d="m321.626 359.366c-3.941 0-7.727-1.552-10.536-4.323-2.856-2.818-4.464-6.664-4.464-10.677v-203.691c0-7.72 5.859-14.18 13.543-14.929 2.252-.222 55.533-4.997 91.979 28.066 21.433 19.443 32.3 47.277 32.3 82.73 0 62.574-33.787 92.827-62.132 107.188-29.716 15.057-59.248 15.618-60.491 15.635-.066.001-.133.001-.199.001z" fill="#e1e1e6"/><path d="m82.566 300.077c-5.13 0-10.125-2.631-12.926-7.366-4.217-7.13-1.855-16.329 5.274-20.547l190.588-112.726c7.133-4.217 16.33-1.854 20.548 5.274 4.217 7.131 1.855 16.33-5.274 20.548l-190.588 112.726c-2.396 1.417-5.027 2.091-7.622 2.091z" fill="#eeeef2"/><path d="m286.051 164.713c-4.218-7.128-13.415-9.491-20.548-5.274l-9.503 5.62v34.856l24.776-14.654c7.13-4.218 9.492-13.417 5.275-20.548z" fill="#e1e1e6"/><path d="m118.079 348.591c-5.13 0-10.125-2.631-12.926-7.366-4.217-7.13-1.855-16.329 5.274-20.547l155.338-91.876c7.13-4.216 16.329-1.854 20.547 5.274 4.217 7.131 1.855 16.33-5.275 20.548l-155.336 91.876c-2.396 1.417-5.027 2.091-7.622 2.091z" fill="#eeeef2"/><path d="m153.592 397.104c-5.13 0-10.125-2.631-12.926-7.366-4.217-7.13-1.855-16.329 5.275-20.547l119.357-70.595c7.129-4.216 16.329-1.855 20.547 5.275 4.217 7.13 1.855 16.329-5.275 20.547l-119.357 70.595c-2.396 1.418-5.026 2.091-7.621 2.091z" fill="#eeeef2"/><g fill="#e1e1e6"><path d="m286.312 234.078c-4.218-7.132-13.417-9.491-20.547-5.275l-9.765 5.775v34.855l25.037-14.808c7.131-4.218 9.492-13.418 5.275-20.547z"/><path d="m285.846 303.872c-4.218-7.131-13.418-9.492-20.547-5.275l-9.299 5.5v34.854l24.57-14.532c7.131-4.217 9.492-13.417 5.276-20.547z"/></g></svg>